<?xml version="1.0" encoding="UTF-8"?>
<svg width="346px" height="360px" viewBox="0 0 346 360" version="1.1" xmlns="http://www.w3.org/2000/svg" xmlns:xlink="http://www.w3.org/1999/xlink">
    <title>data51</title>
    <defs>
        <path d="M29.2441406,119.119141 C34.0071615,119.119141 38.2958984,118.311849 42.1103516,116.697266 C45.9248047,115.082682 48.9622396,112.973633 51.2226562,110.370117 C53.4830729,107.766602 55.1985677,104.971354 56.3691406,101.984375 C57.5397135,98.9973958 58.125,95.9902344 58.125,92.9628906 C58.125,89.9759115 57.8323568,87.1705729 57.2470703,84.546875 C56.6617839,81.9231771 55.6526693,79.3701172 54.2197266,76.8876953 C52.7867839,74.4052734 50.9703776,72.2760417 48.7705078,70.5 C46.570638,68.7239583 43.7451172,67.3011068 40.2939453,66.2314453 C36.8427734,65.1617839 32.9173177,64.6269531 28.5175781,64.6269531 C22.4628906,64.6269531 17.0540365,66.2213542 12.2910156,69.4101562 L12.2910156,69.4101562 L12.2910156,41.6191406 L51.828125,41.9824219 L52.4335938,22.0019531 L49.1035156,22.0019531 C48.9824219,23.0917969 48.851237,24.0201823 48.7099609,24.7871094 C48.5686849,25.5540365 48.3264974,26.2604167 47.9833984,26.90625 C47.6402995,27.5520833 47.327474,28.0667318 47.0449219,28.4501953 C46.7623698,28.8336589 46.2477214,29.1666667 45.5009766,29.4492188 C44.7542318,29.7317708 44.0983073,29.9436849 43.5332031,30.0849609 C42.968099,30.226237 42.0397135,30.3372396 40.7480469,30.4179688 C39.4563802,30.4986979 38.3059896,30.5491536 37.296875,30.5693359 C36.422309,30.5868273 35.1839236,30.596739 33.5817188,30.5990712 L9.02148438,30.5996094 L9.26367188,72.3769531 L11.9882812,73.9511719 C13.4414062,72.3769531 15.358724,71.0348307 17.7402344,69.9248047 C20.1217448,68.8147786 22.5839844,68.2597656 25.1269531,68.2597656 C26.9433594,68.2597656 28.6083984,68.4615885 30.1220703,68.8652344 C31.6357422,69.2688802 32.9375,69.7734375 34.0273438,70.3789062 C35.1171875,70.984375 36.0859375,71.8017578 36.9335938,72.8310547 C37.78125,73.8603516 38.4775391,74.8291016 39.0224609,75.7373047 C39.5673828,76.6455078 40.0315755,77.8059896 40.4150391,79.21875 C40.7985026,80.6315104 41.0810547,81.8222656 41.2626953,82.7910156 C41.4443359,83.7597656 41.585612,85.0009766 41.6865234,86.5146484 C41.7874349,88.0283203 41.8580729,90.218099 41.8984375,93.0839844 C41.8984375,99.8652344 40.6673177,105.324544 38.2050781,109.461914 C35.7428385,113.599284 32.0898438,115.667969 27.2460938,115.667969 C21.1106771,115.667969 16.6907552,114.073568 13.9863281,110.884766 L13.9863281,110.884766 L13.9863281,110.642578 C16.6907552,110.642578 18.8805339,109.885742 20.5556641,108.37207 C22.2307943,106.858398 23.0683594,104.749349 23.0683594,102.044922 C23.0683594,99.5423177 22.2610677,97.5139974 20.6464844,95.9599609 C19.031901,94.4059245 16.8925781,93.6289062 14.2285156,93.6289062 C11.5240885,93.6289062 9.34440104,94.5673828 7.68945312,96.4443359 C6.03450521,98.3212891 5.20703125,100.511068 5.20703125,103.013672 C5.20703125,107.695964 7.34635417,111.550781 11.625,114.578125 C15.9036458,117.605469 21.7766927,119.119141 29.2441406,119.119141 Z M103.232422,117 L103.232422,114.275391 L93.9082031,113.669922 L93.9082031,28.4804688 L90.578125,28.4804688 L63.9980469,35.8066406 L64.90625,39.015625 L79.0136719,35.625 L79.0136719,113.669922 L69.75,114.275391 L69.75,117 L103.232422,117 Z M130.962891,74.6777344 C137.017578,74.6777344 142.174154,72.3164062 146.432617,67.59375 C150.691081,62.8710938 152.820312,57.3007812 152.820312,50.8828125 C152.820312,48.0976562 152.366211,45.4033203 151.458008,42.7998047 C150.549805,40.1962891 149.227865,37.8147786 147.492188,35.6552734 C145.75651,33.4957682 143.46582,31.7600911 140.620117,30.4482422 C137.774414,29.1363932 134.575521,28.4804688 131.023438,28.4804688 C126.38151,28.4804688 122.304688,29.6611328 118.792969,32.0224609 C115.28125,34.3837891 112.677734,37.3203125 110.982422,40.8320312 C109.287109,44.34375 108.439453,48.0572917 108.439453,51.9726562 C108.439453,56.0091146 109.297201,59.7327474 111.012695,63.1435547 C112.72819,66.554362 115.331706,69.3294271 118.823242,71.46875 C122.314779,73.6080729 126.361328,74.6777344 130.962891,74.6777344 Z M133.566406,117 L180.732422,28.4804688 L176.917969,28.4804688 L129.751953,117 L133.566406,117 Z M130.478516,71.3476562 C129.146484,71.3476562 127.96582,71.0953776 126.936523,70.5908203 C125.907227,70.086263 125.049479,69.460612 124.363281,68.7138672 C123.677083,67.9671224 123.091797,66.9781901 122.607422,65.7470703 C122.123047,64.5159505 121.759766,63.3453776 121.517578,62.2353516 C121.275391,61.1253255 121.083659,59.7630208 120.942383,58.1484375 C120.801107,56.5338542 120.710286,53.8092448 120.669922,49.9746094 C120.669922,48.0371094 120.780924,46.1904297 121.00293,44.4345703 C121.224935,42.6787109 121.648763,40.7613932 122.274414,38.6826172 C122.900065,36.6038411 123.939453,34.9388021 125.392578,33.6875 C126.845703,32.4361979 128.621745,31.8105469 130.720703,31.8105469 C132.214193,31.8105469 133.526042,32.093099 134.65625,32.6582031 C135.786458,33.2233073 136.694661,34.0810547 137.380859,35.2314453 C138.067057,36.3818359 138.62207,37.5524089 139.045898,38.7431641 C139.469727,39.9339193 139.772461,41.4375 139.954102,43.2539062 C140.135742,45.0703125 140.287109,48.2591146 140.408203,52.8203125 C140.408203,65.171875 137.098307,71.3476562 130.478516,71.3476562 Z M181.277344,119.119141 C185.273438,119.119141 188.946615,118.019206 192.296875,115.819336 C195.647135,113.619466 198.280924,110.693034 200.198242,107.040039 C202.11556,103.387044 203.074219,99.4817708 203.074219,95.3242188 C203.074219,92.5794271 202.620117,89.9052734 201.711914,87.3017578 C200.803711,84.6982422 199.491862,82.3066406 197.776367,80.1269531 C196.060872,77.9472656 193.790365,76.2014974 190.964844,74.8896484 C188.139323,73.5777995 184.950521,72.921875 181.398438,72.921875 C177.886719,72.921875 174.667643,73.6080729 171.741211,74.9804688 C168.814779,76.3528646 166.413086,78.1591797 164.536133,80.3994141 C162.65918,82.6396484 161.216146,85.1422526 160.207031,87.9072266 C159.197917,90.6722005 158.693359,93.5279948 158.693359,96.4746094 C158.693359,102.73112 160.731771,108.069336 164.808594,112.489258 C168.885417,116.90918 174.375,119.119141 181.277344,119.119141 Z M180.792969,115.789062 C179.460938,115.789062 178.270182,115.536784 177.220703,115.032227 C176.171224,114.527669 175.313477,113.912109 174.647461,113.185547 C173.981445,112.458984 173.40625,111.470052 172.921875,110.21875 C172.4375,108.967448 172.074219,107.796875 171.832031,106.707031 C171.589844,105.617188 171.398112,104.254883 171.256836,102.620117 C171.11556,100.985352 171.02474,98.2708333 170.984375,94.4765625 C171.186198,90.2382812 171.499023,87.2210286 171.922852,85.4248047 C172.34668,83.6285807 172.891602,82.0947266 173.557617,80.8232422 C174.223633,79.5517578 175.202474,78.4720052 176.494141,77.5839844 C177.785807,76.6959635 179.299479,76.2519531 181.035156,76.2519531 C182.326823,76.2519531 183.477214,76.4840495 184.486328,76.9482422 C185.495443,77.4124349 186.333008,78.0078125 186.999023,78.734375 C187.665039,79.4609375 188.240234,80.4195964 188.724609,81.6103516 C189.208984,82.8011068 189.572266,83.9414062 189.814453,85.03125 C190.056641,86.1210938 190.248372,87.4632161 190.389648,89.0576172 C190.530924,90.6520182 190.621745,93.406901 190.662109,97.3222656 C190.662109,109.633464 187.372396,115.789062 180.792969,115.789062 Z" id="path-1"></path>
    </defs>
    <g id="Page-1" stroke="none" stroke-width="1" fill="none" fill-rule="evenodd">
        <g id="data51" fill-rule="nonzero">
            <circle id="Oval" fill="#52335F" cx="163.5" cy="163.5" r="163.5"></circle>
            <path d="M162,0 C253.126984,0 327,73.2014434 327,163.5 C327,248.738864 261.173689,318.742937 177.14586,326.320381 L162,162.022305 L162,0 Z" id="Combined-Shape" fill="#27687A"></path>
            <g id="51%" transform="translate(141.000000, 209.000000)">
                <g>
                    <use fill="#000000" xlink:href="#path-1"></use>
                    <use fill="#E9F5F3" xlink:href="#path-1"></use>
                </g>
            </g>
        </g>
    </g>
</svg>