<?xml version="1.0" encoding="UTF-8"?>
<svg width="395px" height="255px" viewBox="0 0 395 255" version="1.1" xmlns="http://www.w3.org/2000/svg" xmlns:xlink="http://www.w3.org/1999/xlink">
    <title>data31</title>
    <g id="Page-1" stroke="none" stroke-width="1" fill="none" fill-rule="evenodd">
        <g id="Hero-Copy" transform="translate(-913.000000, -604.000000)">
            <g id="data31" transform="translate(913.000000, 604.000000)">
                <g id="Group-2" transform="translate(0.000000, 0.800000)">
                    <g id="Group-3">
                        <circle id="Oval-Copy" fill="#27687A" cx="91" cy="160.2" r="91"></circle>
                        <circle id="Oval-Copy-2" fill="#52335F" cx="195.5" cy="122.5" r="122.5"></circle>
                        <path d="M194.576172,253.319141 C199.742839,253.319141 204.33431,252.643034 208.350586,251.29082 C212.366862,249.938607 215.555664,248.132292 217.916992,245.871875 C220.27832,243.611458 222.064453,241.118945 223.275391,238.394336 C224.486328,235.669727 225.091797,232.79375 225.091797,229.766406 C225.091797,214.064583 216.110677,205.325651 198.148438,203.549609 L198.148438,203.549609 L198.148438,203.428516 C205.535156,202.580859 211.044922,200.481901 214.677734,197.131641 C218.310547,193.78138 220.126953,189.502734 220.126953,184.295703 C220.126953,177.474089 217.80599,172.166146 213.164062,168.371875 C208.522135,164.577604 202.245443,162.680469 194.333984,162.680469 C190.539714,162.680469 187.118815,163.195117 184.071289,164.224414 C181.023763,165.253711 178.62207,166.515104 176.866211,168.008594 C175.110352,169.502083 173.647135,171.167122 172.476562,173.003711 C171.30599,174.840299 170.508789,176.495247 170.084961,177.968555 C169.661133,179.441862 169.449219,180.763802 169.449219,181.934375 C169.449219,184.598438 170.175781,186.73776 171.628906,188.352344 C173.082031,189.966927 175.120443,190.774219 177.744141,190.774219 C180.20638,190.774219 182.174154,190.037565 183.647461,188.564258 C185.120768,187.090951 185.857422,185.163542 185.857422,182.782031 C185.857422,180.117969 184.989583,178.01901 183.253906,176.485156 C181.518229,174.951302 179.277995,174.386198 176.533203,174.789844 L176.533203,174.789844 L176.533203,174.547656 C177.179036,172.771615 178.803711,170.955208 181.407227,169.098438 C184.010742,167.241667 187.068359,166.313281 190.580078,166.313281 C195.343099,166.313281 198.895182,167.927865 201.236328,171.157031 C203.577474,174.386198 204.748047,178.765755 204.748047,184.295703 C204.748047,186.798307 204.495768,189.088997 203.991211,191.167773 C203.486654,193.246549 202.689453,195.153776 201.599609,196.889453 C200.509766,198.62513 198.96582,199.987435 196.967773,200.976367 C194.969727,201.965299 192.598307,202.459766 189.853516,202.459766 L189.853516,202.459766 L185.978516,202.459766 L185.978516,205.789844 L190.095703,205.789844 C192.598307,205.789844 194.848633,206.092578 196.84668,206.698047 C198.844727,207.303516 200.489583,208.070443 201.78125,208.998828 C203.072917,209.927214 204.182943,211.117969 205.111328,212.571094 C206.039714,214.024219 206.736003,215.396615 207.200195,216.688281 C207.664388,217.979948 208.027669,219.533984 208.290039,221.350391 C208.552409,223.166797 208.703776,224.640104 208.744141,225.770313 C208.784505,226.900521 208.804688,228.272917 208.804688,229.8875 C208.804688,236.22474 207.301107,241.139128 204.293945,244.630664 C201.286784,248.122201 197.220052,249.867969 192.09375,249.867969 C190.15625,249.867969 188.400391,249.726693 186.826172,249.444141 C185.251953,249.161589 184.030924,248.868945 183.163086,248.566211 C182.295247,248.263477 181.457682,247.809375 180.650391,247.203906 C179.843099,246.598438 179.358724,246.194792 179.197266,245.992969 L179.197266,245.992969 L178.349609,245.024219 L178.349609,244.782031 C181.054036,244.782031 183.233724,244.075651 184.888672,242.662891 C186.54362,241.25013 187.371094,239.191536 187.371094,236.487109 C187.371094,233.984505 186.563802,231.91582 184.949219,230.281055 C183.334635,228.646289 181.215495,227.828906 178.591797,227.828906 C175.847005,227.828906 173.647135,228.767383 171.992188,230.644336 C170.33724,232.521289 169.509766,234.711068 169.509766,237.213672 C169.509766,242.057422 171.558268,245.952604 175.655273,248.899219 C179.752279,251.845833 186.059245,253.319141 194.576172,253.319141 Z M289.9375,251.2 L289.9375,248.475391 L280.613281,247.869922 L280.613281,231.219531 L296.113281,231.219531 L296.113281,227.768359 L280.613281,227.95 L280.613281,162.680469 L277.283203,162.680469 L231.146484,228.373828 L231.146484,231.219531 L265.71875,231.219531 L265.71875,247.869922 L256.455078,248.475391 L256.455078,251.2 L289.9375,251.2 Z M235.626953,228.373828 L235.626953,228.192188 L265.537109,185.143359 L265.71875,185.143359 L265.71875,228.071094 L235.626953,228.373828 Z M321.966797,208.877734 C328.021484,208.877734 333.17806,206.516406 337.436523,201.79375 C341.694987,197.071094 343.824219,191.500781 343.824219,185.082813 C343.824219,182.297656 343.370117,179.60332 342.461914,176.999805 C341.553711,174.396289 340.231771,172.014779 338.496094,169.855273 C336.760417,167.695768 334.469727,165.960091 331.624023,164.648242 C328.77832,163.336393 325.579427,162.680469 322.027344,162.680469 C317.385417,162.680469 313.308594,163.861133 309.796875,166.222461 C306.285156,168.583789 303.681641,171.520313 301.986328,175.032031 C300.291016,178.54375 299.443359,182.257292 299.443359,186.172656 C299.443359,190.209115 300.301107,193.932747 302.016602,197.343555 C303.732096,200.754362 306.335612,203.529427 309.827148,205.66875 C313.318685,207.808073 317.365234,208.877734 321.966797,208.877734 Z M324.570312,251.2 L371.736328,162.680469 L367.921875,162.680469 L320.755859,251.2 L324.570312,251.2 Z M321.482422,205.547656 C320.150391,205.547656 318.969727,205.295378 317.94043,204.79082 C316.911133,204.286263 316.053385,203.660612 315.367188,202.913867 C314.68099,202.167122 314.095703,201.17819 313.611328,199.94707 C313.126953,198.715951 312.763672,197.545378 312.521484,196.435352 C312.279297,195.325326 312.087565,193.963021 311.946289,192.348438 C311.805013,190.733854 311.714193,188.009245 311.673828,184.174609 C311.673828,182.237109 311.784831,180.39043 312.006836,178.63457 C312.228841,176.878711 312.652669,174.961393 313.27832,172.882617 C313.903971,170.803841 314.943359,169.138802 316.396484,167.8875 C317.849609,166.636198 319.625651,166.010547 321.724609,166.010547 C323.218099,166.010547 324.529948,166.293099 325.660156,166.858203 C326.790365,167.423307 327.698568,168.281055 328.384766,169.431445 C329.070964,170.581836 329.625977,171.752409 330.049805,172.943164 C330.473633,174.133919 330.776367,175.6375 330.958008,177.453906 C331.139648,179.270313 331.291016,182.459115 331.412109,187.020313 C331.412109,199.371875 328.102214,205.547656 321.482422,205.547656 Z M372.28125,253.319141 C376.277344,253.319141 379.950521,252.219206 383.300781,250.019336 C386.651042,247.819466 389.284831,244.893034 391.202148,241.240039 C393.119466,237.587044 394.078125,233.681771 394.078125,229.524219 C394.078125,226.779427 393.624023,224.105273 392.71582,221.501758 C391.807617,218.898242 390.495768,216.506641 388.780273,214.326953 C387.064779,212.147266 384.794271,210.401497 381.96875,209.089648 C379.143229,207.777799 375.954427,207.121875 372.402344,207.121875 C368.890625,207.121875 365.671549,207.808073 362.745117,209.180469 C359.818685,210.552865 357.416992,212.35918 355.540039,214.599414 C353.663086,216.839648 352.220052,219.342253 351.210938,222.107227 C350.201823,224.872201 349.697266,227.727995 349.697266,230.674609 C349.697266,236.93112 351.735677,242.269336 355.8125,246.689258 C359.889323,251.10918 365.378906,253.319141 372.28125,253.319141 Z M371.796875,249.989063 C370.464844,249.989063 369.274089,249.736784 368.224609,249.232227 C367.17513,248.727669 366.317383,248.112109 365.651367,247.385547 C364.985352,246.658984 364.410156,245.670052 363.925781,244.41875 C363.441406,243.167448 363.078125,241.996875 362.835938,240.907031 C362.59375,239.817188 362.402018,238.454883 362.260742,236.820117 C362.119466,235.185352 362.028646,232.470833 361.988281,228.676563 C362.190104,224.438281 362.50293,221.421029 362.926758,219.624805 C363.350586,217.828581 363.895508,216.294727 364.561523,215.023242 C365.227539,213.751758 366.20638,212.672005 367.498047,211.783984 C368.789714,210.895964 370.303385,210.451953 372.039062,210.451953 C373.330729,210.451953 374.48112,210.684049 375.490234,211.148242 C376.499349,211.612435 377.336914,212.207813 378.00293,212.934375 C378.668945,213.660938 379.244141,214.619596 379.728516,215.810352 C380.212891,217.001107 380.576172,218.141406 380.818359,219.23125 C381.060547,220.321094 381.252279,221.663216 381.393555,223.257617 C381.534831,224.852018 381.625651,227.606901 381.666016,231.522266 C381.666016,243.833464 378.376302,249.989063 371.796875,249.989063 Z" id="34%" fill="#E9F5F3" fill-rule="nonzero"></path>
                    </g>
                </g>
            </g>
        </g>
    </g>
</svg>