<?xml version="1.0" encoding="UTF-8"?>
<svg width="373px" height="281px" viewBox="0 0 373 281" version="1.1" xmlns="http://www.w3.org/2000/svg" xmlns:xlink="http://www.w3.org/1999/xlink">
    <title>data31</title>
    <defs>
        <path d="M30.5761719,119.119141 C35.7428385,119.119141 40.3343099,118.443034 44.3505859,117.09082 C48.366862,115.738607 51.5556641,113.932292 53.9169922,111.671875 C56.2783203,109.411458 58.0644531,106.918945 59.2753906,104.194336 C60.4863281,101.469727 61.0917969,98.59375 61.0917969,95.5664062 C61.0917969,79.8645833 52.1106771,71.125651 34.1484375,69.3496094 L34.1484375,69.3496094 L34.1484375,69.2285156 C41.5351562,68.3808594 47.0449219,66.281901 50.6777344,62.9316406 C54.3105469,59.5813802 56.1269531,55.3027344 56.1269531,50.0957031 C56.1269531,43.2740885 53.8059896,37.9661458 49.1640625,34.171875 C44.5221354,30.3776042 38.2454427,28.4804688 30.3339844,28.4804688 C26.5397135,28.4804688 23.1188151,28.9951172 20.0712891,30.0244141 C17.023763,31.0537109 14.6220703,32.3151042 12.8662109,33.8085938 C11.1103516,35.3020833 9.64713542,36.9671224 8.4765625,38.8037109 C7.30598958,40.6402995 6.50878906,42.2952474 6.08496094,43.7685547 C5.66113281,45.241862 5.44921875,46.5638021 5.44921875,47.734375 C5.44921875,50.3984375 6.17578125,52.5377604 7.62890625,54.1523438 C9.08203125,55.7669271 11.1204427,56.5742188 13.7441406,56.5742188 C16.2063802,56.5742188 18.1741536,55.8375651 19.6474609,54.3642578 C21.1207682,52.8909505 21.8574219,50.9635417 21.8574219,48.5820312 C21.8574219,45.9179688 20.9895833,43.8190104 19.2539062,42.2851562 C17.5182292,40.7513021 15.2779948,40.1861979 12.5332031,40.5898438 L12.5332031,40.5898438 L12.5332031,40.3476562 C13.1790365,38.5716146 14.8037109,36.7552083 17.4072266,34.8984375 C20.0107422,33.0416667 23.0683594,32.1132812 26.5800781,32.1132812 C31.343099,32.1132812 34.8951823,33.7278646 37.2363281,36.9570312 C39.577474,40.1861979 40.7480469,44.5657552 40.7480469,50.0957031 C40.7480469,52.5983073 40.4957682,54.8889974 39.9912109,56.9677734 C39.4866536,59.0465495 38.6894531,60.953776 37.5996094,62.6894531 C36.5097656,64.4251302 34.9658203,65.7874349 32.9677734,66.7763672 C30.9697266,67.7652995 28.5983073,68.2597656 25.8535156,68.2597656 L25.8535156,68.2597656 L21.9785156,68.2597656 L21.9785156,71.5898438 L26.0957031,71.5898438 C28.5983073,71.5898438 30.8486328,71.8925781 32.8466797,72.4980469 C34.8447266,73.1035156 36.4895833,73.8704427 37.78125,74.7988281 C39.0729167,75.7272135 40.1829427,76.9179688 41.1113281,78.3710938 C42.0397135,79.8242188 42.7360026,81.1966146 43.2001953,82.4882812 C43.664388,83.7799479 44.0276693,85.3339844 44.2900391,87.1503906 C44.5524089,88.9667969 44.703776,90.4401042 44.7441406,91.5703125 C44.7845052,92.7005208 44.8046875,94.0729167 44.8046875,95.6875 C44.8046875,102.02474 43.3011068,106.939128 40.2939453,110.430664 C37.2867839,113.922201 33.2200521,115.667969 28.09375,115.667969 C26.15625,115.667969 24.4003906,115.526693 22.8261719,115.244141 C21.2519531,114.961589 20.0309245,114.668945 19.1630859,114.366211 C18.2952474,114.063477 17.4576823,113.609375 16.6503906,113.003906 C15.843099,112.398438 15.358724,111.994792 15.1972656,111.792969 L15.1972656,111.792969 L14.3496094,110.824219 L14.3496094,110.582031 C17.0540365,110.582031 19.233724,109.875651 20.8886719,108.462891 C22.5436198,107.05013 23.3710938,104.991536 23.3710938,102.287109 C23.3710938,99.7845052 22.5638021,97.7158203 20.9492188,96.0810547 C19.3346354,94.4462891 17.2154948,93.6289062 14.5917969,93.6289062 C11.8470052,93.6289062 9.64713542,94.5673828 7.9921875,96.4443359 C6.33723958,98.3212891 5.50976562,100.511068 5.50976562,103.013672 C5.50976562,107.857422 7.55826823,111.752604 11.6552734,114.699219 C15.7522786,117.645833 22.0592448,119.119141 30.5761719,119.119141 Z M107.470703,117 L107.470703,114.275391 L98.1464844,113.669922 L98.1464844,28.4804688 L94.8164062,28.4804688 L68.2363281,35.8066406 L69.1445312,39.015625 L83.2519531,35.625 L83.2519531,113.669922 L73.9882812,114.275391 L73.9882812,117 L107.470703,117 Z M135.201172,74.6777344 C141.255859,74.6777344 146.412435,72.3164062 150.670898,67.59375 C154.929362,62.8710938 157.058594,57.3007812 157.058594,50.8828125 C157.058594,48.0976562 156.604492,45.4033203 155.696289,42.7998047 C154.788086,40.1962891 153.466146,37.8147786 151.730469,35.6552734 C149.994792,33.4957682 147.704102,31.7600911 144.858398,30.4482422 C142.012695,29.1363932 138.813802,28.4804688 135.261719,28.4804688 C130.619792,28.4804688 126.542969,29.6611328 123.03125,32.0224609 C119.519531,34.3837891 116.916016,37.3203125 115.220703,40.8320312 C113.525391,44.34375 112.677734,48.0572917 112.677734,51.9726562 C112.677734,56.0091146 113.535482,59.7327474 115.250977,63.1435547 C116.966471,66.554362 119.569987,69.3294271 123.061523,71.46875 C126.55306,73.6080729 130.599609,74.6777344 135.201172,74.6777344 Z M137.804688,117 L184.970703,28.4804688 L181.15625,28.4804688 L133.990234,117 L137.804688,117 Z M134.716797,71.3476562 C133.384766,71.3476562 132.204102,71.0953776 131.174805,70.5908203 C130.145508,70.086263 129.28776,69.460612 128.601562,68.7138672 C127.915365,67.9671224 127.330078,66.9781901 126.845703,65.7470703 C126.361328,64.5159505 125.998047,63.3453776 125.755859,62.2353516 C125.513672,61.1253255 125.32194,59.7630208 125.180664,58.1484375 C125.039388,56.5338542 124.948568,53.8092448 124.908203,49.9746094 C124.908203,48.0371094 125.019206,46.1904297 125.241211,44.4345703 C125.463216,42.6787109 125.887044,40.7613932 126.512695,38.6826172 C127.138346,36.6038411 128.177734,34.9388021 129.630859,33.6875 C131.083984,32.4361979 132.860026,31.8105469 134.958984,31.8105469 C136.452474,31.8105469 137.764323,32.093099 138.894531,32.6582031 C140.02474,33.2233073 140.932943,34.0810547 141.619141,35.2314453 C142.305339,36.3818359 142.860352,37.5524089 143.28418,38.7431641 C143.708008,39.9339193 144.010742,41.4375 144.192383,43.2539062 C144.374023,45.0703125 144.525391,48.2591146 144.646484,52.8203125 C144.646484,65.171875 141.336589,71.3476562 134.716797,71.3476562 Z M185.515625,119.119141 C189.511719,119.119141 193.184896,118.019206 196.535156,115.819336 C199.885417,113.619466 202.519206,110.693034 204.436523,107.040039 C206.353841,103.387044 207.3125,99.4817708 207.3125,95.3242188 C207.3125,92.5794271 206.858398,89.9052734 205.950195,87.3017578 C205.041992,84.6982422 203.730143,82.3066406 202.014648,80.1269531 C200.299154,77.9472656 198.028646,76.2014974 195.203125,74.8896484 C192.377604,73.5777995 189.188802,72.921875 185.636719,72.921875 C182.125,72.921875 178.905924,73.6080729 175.979492,74.9804688 C173.05306,76.3528646 170.651367,78.1591797 168.774414,80.3994141 C166.897461,82.6396484 165.454427,85.1422526 164.445312,87.9072266 C163.436198,90.6722005 162.931641,93.5279948 162.931641,96.4746094 C162.931641,102.73112 164.970052,108.069336 169.046875,112.489258 C173.123698,116.90918 178.613281,119.119141 185.515625,119.119141 Z M185.03125,115.789062 C183.699219,115.789062 182.508464,115.536784 181.458984,115.032227 C180.409505,114.527669 179.551758,113.912109 178.885742,113.185547 C178.219727,112.458984 177.644531,111.470052 177.160156,110.21875 C176.675781,108.967448 176.3125,107.796875 176.070312,106.707031 C175.828125,105.617188 175.636393,104.254883 175.495117,102.620117 C175.353841,100.985352 175.263021,98.2708333 175.222656,94.4765625 C175.424479,90.2382812 175.737305,87.2210286 176.161133,85.4248047 C176.584961,83.6285807 177.129883,82.0947266 177.795898,80.8232422 C178.461914,79.5517578 179.440755,78.4720052 180.732422,77.5839844 C182.024089,76.6959635 183.53776,76.2519531 185.273438,76.2519531 C186.565104,76.2519531 187.715495,76.4840495 188.724609,76.9482422 C189.733724,77.4124349 190.571289,78.0078125 191.237305,78.734375 C191.90332,79.4609375 192.478516,80.4195964 192.962891,81.6103516 C193.447266,82.8011068 193.810547,83.9414062 194.052734,85.03125 C194.294922,86.1210938 194.486654,87.4632161 194.62793,89.0576172 C194.769206,90.6520182 194.860026,93.406901 194.900391,97.3222656 C194.900391,109.633464 191.610677,115.789062 185.03125,115.789062 Z" id="path-1"></path>
    </defs>
    <g id="Page-1" stroke="none" stroke-width="1" fill="none" fill-rule="evenodd">
        <g id="data31" fill-rule="nonzero">
            <circle id="Oval-Copy" fill="#27687A" cx="91" cy="156" r="91"></circle>
            <circle id="Oval-Copy-2" fill="#52335F" cx="191.3" cy="118.3" r="118.3"></circle>
            <g id="31%" transform="translate(164.000000, 130.000000)">
                <g>
                    <use fill="#000000" xlink:href="#path-1"></use>
                    <use fill="#E9F5F3" xlink:href="#path-1"></use>
                </g>
            </g>
        </g>
    </g>
</svg>