<?xml version="1.0" encoding="UTF-8"?>
<svg width="48px" height="48px" viewBox="0 0 48 48" version="1.1" xmlns="http://www.w3.org/2000/svg" xmlns:xlink="http://www.w3.org/1999/xlink">
    <title>domestico</title>
    <g id="domestico" stroke="none" stroke-width="1" fill="none" fill-rule="evenodd">
        <g id="002-home" transform="translate(2.000000, 4.000000)">
            <polygon id="Path-4" fill="#FFCE4C" points="14 24.6874426 25.8552379 16 38 24.6874426 38 40 14 40"></polygon>
            <path d="M13,8.61097452 L13,22.6085602 C11.543371,23.5361867 10.0650565,24 8.5650565,24 C7.0650565,24 5.543371,23.2136095 4,21.6408284 L4,8.61097452 C4.086742,5.53699151 5.6084275,4 8.5650565,4 C11.5216855,4 13,5.53699151 13,8.61097452 Z" id="Path-6" fill="#FFF4D8"></path>
            <path d="M43.5874141,31.5707435 L41.3905078,30.235826 C41.1161094,30.0690578 40.7713281,30.0690578 40.4969297,30.235826 L38.7468984,31.2992305 L36.9967813,30.235826 C36.7223828,30.0690578 36.3776016,30.0690578 36.1032031,30.235826 L35.2125469,30.7770505 L35.2125469,24.2682017 C35.6839141,24.5762596 36.2267813,24.7383095 36.7930234,24.7383095 C37.7110078,24.7383095 38.583875,24.2972832 39.1280312,23.558579 C40.0730859,22.2756479 39.8028984,20.462816 38.5270703,19.5112766 L35.0742734,16.8132179 L35.0742734,9.98533058 C35.0742734,9.51153394 34.6894453,9.12746957 34.2148984,9.12746957 L29.6699219,9.12746957 C29.195375,9.12746957 28.8105469,9.51153394 28.8105469,9.98533058 L28.8105469,11.9186919 L24.2195078,8.33120298 C24.2134922,8.32648474 24.2073047,8.32185229 24.2012031,8.31730563 C23.1711563,7.55578241 21.7867031,7.55578241 20.7563125,8.31730563 C20.7502109,8.32185229 20.7440234,8.32648474 20.7380078,8.33120298 L12.5147344,14.7569251 L12.5147344,6.24634337 C12.5147344,2.8021172 9.70775781,0 6.25736719,0 C2.80697656,0 0,2.8021172 0,6.24634337 L0,16.535271 C0,18.1650353 0.625023438,19.7074694 1.76,20.8783639 C2.74286719,21.8922698 4.01654687,22.5343788 5.39825,22.7232798 C5.39799219,22.7311721 5.39790625,22.7390644 5.39790625,22.7470425 L5.39790625,30.8056173 L4.46032813,30.2359118 C4.18592969,30.0691436 3.84114844,30.0691436 3.56675,30.2359118 L1.36984375,31.5708293 C1.11366406,31.7264453 0.957257813,32.0042207 0.957257813,32.3036142 L0.957257813,39.142139 C0.957257813,39.6159356 1.34208594,40 1.81663281,40 L18.1151094,40 C18.5897422,40 18.9744844,39.6159356 18.9744844,39.142139 C18.9744844,38.6683424 18.5897422,38.284278 18.1151094,38.284278 L11.4636328,38.284278 L11.4636328,22.9314826 L22.4785859,14.2814985 L33.493625,22.9314826 L33.493625,38.2841922 L25.8848906,38.2841922 C25.4103437,38.2841922 25.0255156,38.6682566 25.0255156,39.1420532 C25.0255156,39.6158498 25.4103437,40 25.8848906,40 L43.140625,40 C43.6151719,40 44,39.6158498 44,39.1420532 L44,32.3035284 C44,32.0042207 43.8436797,31.7264453 43.5874141,31.5707435 Z M30.529125,10.8431916 L33.3553516,10.8431916 L33.3553516,15.4701507 L30.529125,13.2617591 L30.529125,10.8431916 Z M1.71875,16.535271 L1.71875,6.24634337 C1.71875,3.74816632 3.75469531,1.71572202 6.25736719,1.71572202 C8.76003906,1.71572202 10.7959844,3.74808054 10.7959844,6.24634337 L10.7959844,16.0999065 L7.11674219,18.9748561 L7.11674219,15.905172 L8.71509375,14.3039745 C9.04999219,13.9683792 9.04913281,13.4251817 8.71294531,13.0907874 C8.37684375,12.7563074 7.8326875,12.7573369 7.49761719,13.0929321 L7.11682813,13.4743371 L7.11682813,7.99878184 C7.11682813,7.5249852 6.732,7.14092083 6.25745313,7.14092083 C5.78290625,7.14092083 5.39807813,7.5249852 5.39807813,7.99878184 L5.39807813,10.071374 L5.37238281,10.0456382 C5.03748438,9.71004298 4.49324219,9.70909933 4.15705469,10.0434936 C3.82086719,10.3778878 3.81992188,10.9210854 4.15499219,11.2566806 L5.39807813,12.5019516 L5.39807813,20.9288061 C5.39807813,20.9415025 5.39842188,20.9540272 5.3989375,20.966552 C5.39704688,20.972557 5.39524219,20.9785621 5.39335156,20.9845671 C3.28427344,20.5846323 1.71875,18.7490671 1.71875,16.535271 L1.71875,16.535271 Z M9.74488281,30.7770505 L8.85422656,30.235826 C8.57991406,30.0690578 8.23513281,30.0690578 7.96064844,30.235826 L7.11682813,30.7485695 L7.11682813,24.5437466 C7.31302344,24.6192384 7.51884375,24.6737984 7.73171094,24.7058824 C7.87780469,24.7278436 8.0238125,24.7387384 8.16896094,24.7387384 C8.72798438,24.7387384 9.27205469,24.5772032 9.74496875,24.2681159 L9.74496875,30.7770505 L9.74488281,30.7770505 Z M2.67600781,32.7857321 L4.01353906,31.9729945 L5.35107031,32.7857321 L5.35107031,38.284278 L2.67600781,38.284278 L2.67600781,32.7857321 Z M7.06982031,38.2841922 L7.06982031,32.7856463 L8.40735156,31.9729087 L9.74479688,32.7856463 L9.74479688,38.2841922 L7.06982031,38.2841922 Z M21.9473203,12.5157632 L8.85379688,22.7980853 C8.60217188,22.9806381 8.29503125,23.0554436 7.98789063,23.0093764 C7.67636719,22.9624514 7.401625,22.7965411 7.21419531,22.5420995 C6.82610156,22.0154587 6.93790625,21.2710069 7.46324219,20.8825674 C7.46942969,20.8780207 7.47553125,20.8733883 7.48154688,20.8686701 L21.7870469,9.69022639 C22.202125,9.38860246 22.7554766,9.38877403 23.1702109,9.6901406 L37.4757969,20.8686701 C37.4818125,20.8733883 37.488,20.8780207 37.4941016,20.8825674 C38.0194375,21.2709211 38.1312422,22.0153729 37.7431484,22.5420137 C37.51825,22.8473265 37.1718359,23.0226366 36.7928516,23.0226366 C36.5440625,23.0226366 36.3060156,22.9449511 36.1035469,22.7979995 L23.0099375,12.5156774 C22.6982422,12.2708439 22.2590156,12.2708439 21.9473203,12.5157632 L21.9473203,12.5157632 Z M35.212375,32.7856463 L36.5498203,31.9729087 L37.8874375,32.7856463 L37.8874375,38.2841922 L35.212375,38.2841922 L35.212375,32.7856463 Z M39.6061875,38.2841922 L39.6061875,32.7856463 L40.9436328,31.9729087 L42.28125,32.7857321 L42.28125,38.284278 L39.6061875,38.284278 L39.6061875,38.2841922 Z" id="Shape" fill="#000000" fill-rule="nonzero"></path>
            <path d="M23.9257356,38.6182094 C23.7595721,38.2194982 23.3425105,37.9649719 22.9113265,38.0039218 C22.496168,38.04147 22.142507,38.3409539 22.0337344,38.7424687 C21.9262639,39.1389771 22.0813099,39.5771388 22.4171426,39.8152441 C22.7598863,40.0582557 23.2232213,40.0617602 23.5696708,39.8244559 C23.9557833,39.560117 24.1025161,39.049262 23.9257356,38.6182094 L23.9257356,38.6182094 Z" id="Path" fill="#000000" fill-rule="nonzero"></path>
        </g>
    </g>
</svg>