<?xml version="1.0" encoding="UTF-8"?>
<svg width="48px" height="48px" viewBox="0 0 48 48" version="1.1" xmlns="http://www.w3.org/2000/svg" xmlns:xlink="http://www.w3.org/1999/xlink">
    <title>formacao</title>
    <g id="formacao" stroke="none" stroke-width="1" fill="none" fill-rule="evenodd">
        <g id="Group" transform="translate(1.000000, 4.000000)">
            <path d="M0,9.62136646 C5.36287305,8.54045549 9.34578688,8 11.9487415,8 C13.7709878,8 17.4547406,8.84419067 23,10.532572 L23,39 L0,39 L0,9.62136646 Z" id="Path-7-Copy" fill="#F9D2D0"></path>
            <path d="M6,1.60183709 C7.78812367,1.73751099 9.07966197,1.73751099 9.87461488,1.60183709 C13.3360648,1.01107453 13.3360648,0 17.123861,0 C18.8916719,0 21.1837183,0.838444847 24,2.51533454 L24,31 C20.6435884,29.1153494 18.107656,28.1730242 16.3922029,28.1730242 C13.4984732,28.1730242 13.1500566,29.059805 10.364178,29.7184449 C9.49157342,29.9247468 8.03684742,30.1210756 6,30.3074311 L6,1.60183709 Z" id="Path-7" fill="#F68183"></path>
            <g id="001-study" transform="translate(0.000000, 2.000000)" fill="#000000" fill-rule="nonzero">
                <path d="M39.1078551,5.40935423 C37.3246402,5.31490825 35.3067635,5.0354567 33.110297,4.57889579 C30.4715145,4.03023307 27.9100881,4.11493219 25.4969351,4.83046387 C25.1565682,4.93138721 24.9993519,5.20349776 25.1455684,5.43828641 C25.2918743,5.67295169 25.6858986,5.78164786 26.0267127,5.68066283 C28.1417987,5.05346991 30.3949632,4.98080017 32.7232481,5.46487441 C35.0121843,5.940744 37.12575,6.23240999 39.0051906,6.33197617 C39.0226293,6.3329632 39.0400679,6.33333333 39.0572383,6.33333333 C39.4044018,6.33333333 39.6982656,6.14882128 39.7252732,5.90607474 C39.7536222,5.65129882 39.477197,5.42890967 39.1078551,5.40935423 L39.1078551,5.40935423 Z" id="Path"></path>
                <path d="M39.1077657,7.52046535 C37.3249979,7.42608105 35.3072106,7.14669119 33.110297,6.6900069 C30.4715145,6.14134418 27.9100881,6.2260433 25.4969351,6.94157498 C25.1565682,7.04249832 24.9993519,7.31460887 25.1455684,7.54939753 C25.2918743,7.78412449 25.6858986,7.89275897 26.0267127,7.79177394 C28.1417987,7.16458102 30.3949632,7.09191128 32.7232481,7.57598552 C35.0127208,8.0519168 37.1261972,8.34364448 39.00528,8.44308728 C39.0227187,8.44407431 39.0400679,8.44444444 39.0572383,8.44444444 C39.4044018,8.44444444 39.6982656,8.25993239 39.7252732,8.01712416 C39.7536222,7.76234824 39.4771971,7.54002078 39.1077657,7.52046535 L39.1077657,7.52046535 Z" id="Path"></path>
                <path d="M39.1078551,24.4093704 C37.3245508,24.3149261 35.3066741,24.0354794 33.110297,23.5788648 C30.4716934,23.0302117 27.9103564,23.114971 25.4969351,23.8304902 C25.1565682,23.9314118 24.9993519,24.2035175 25.1455684,24.4383021 C25.2918743,24.6729633 25.6858986,24.7816575 26.0267127,24.6806743 C28.1418882,24.0534923 30.3950527,23.9809472 32.7232481,24.4648279 C35.0120948,24.9406892 37.1256606,25.2324118 39.0051906,25.3319762 C39.0226293,25.3329632 39.0400679,25.3333333 39.0572383,25.3333333 C39.4044018,25.3333333 39.6982656,25.1488245 39.7252732,24.9060822 C39.7536222,24.6513108 39.477197,24.4289255 39.1078551,24.4093704 L39.1078551,24.4093704 Z" id="Path"></path>
                <path d="M39.1078551,26.5204541 C37.3246402,26.4260069 35.3067635,26.146552 33.110297,25.6899855 C30.4715145,25.1413778 27.9100881,25.2260162 25.4969351,25.9415567 C25.1565682,26.0424812 24.9993519,26.3145951 25.1455684,26.5493866 C25.2918743,26.7841164 25.6858986,26.8927522 26.0267127,26.791766 C28.1417987,26.1645654 30.3949632,26.0918948 32.7232481,26.5759749 C35.0121843,27.0518503 37.12575,27.3435199 39.0051906,27.4430873 C39.0226293,27.4440743 39.0400679,27.4444444 39.0572383,27.4444444 C39.4044018,27.4444444 39.6982656,27.2599301 39.7252732,27.0171806 C39.7536222,26.7624016 39.477197,26.5400098 39.1078551,26.5204541 L39.1078551,26.5204541 Z" id="Path"></path>
                <path d="M39.1078551,13.8538122 C37.3245508,13.7593676 35.3066741,13.4799201 33.110297,13.0233042 C30.4716934,12.4747112 27.9103564,12.5593474 25.4969351,13.2749303 C25.1565682,13.3758522 24.9993519,13.6479588 25.1455684,13.882744 C25.2918743,14.1174058 25.6858986,14.2260387 26.0267127,14.1251168 C28.1418882,13.4979331 30.3950527,13.4253261 32.7232481,13.9092699 C35.0120948,14.3851325 37.1256606,14.6768559 39.0051906,14.7764206 C39.0226293,14.7774076 39.0400679,14.7777778 39.0572383,14.7777778 C39.4044018,14.7777778 39.6982656,14.5932684 39.7252732,14.3505254 C39.7536222,14.0957533 39.477197,13.8733674 39.1078551,13.8538122 L39.1078551,13.8538122 Z" id="Path"></path>
                <path d="M39.1077657,18.0759592 C37.3249979,17.9816366 35.3072106,17.7022467 33.110297,17.2455625 C30.4716934,16.6968997 27.9101775,16.7815989 25.4969351,17.4971305 C25.1565682,17.5980539 24.9993519,17.8701644 25.1455684,18.1049531 C25.2918743,18.33968 25.6858986,18.4483145 26.0267127,18.3473295 C28.1417093,17.7201983 30.3949632,17.6475285 32.7232481,18.1315411 C35.0127208,18.6074724 37.1261972,18.8992 39.00528,18.9987045 C39.0227187,18.9996299 39.0400679,19 39.0572383,19 C39.4044018,19 39.6982656,18.8154879 39.7252732,18.5726797 C39.7536222,18.3179038 39.4771971,18.0955763 39.1077657,18.0759592 L39.1077657,18.0759592 Z" id="Path"></path>
                <path d="M39.1078551,15.9649098 C37.3246402,15.8704638 35.3067635,15.5910123 33.110297,15.1344513 C30.4717828,14.5857886 27.9101775,14.6704877 25.4969351,15.3860194 C25.1565682,15.4869428 24.9993519,15.7590533 25.1455684,15.993842 C25.2918743,16.2285072 25.6858986,16.3372034 26.0267127,16.2362184 C28.142067,15.6090255 30.3950527,15.5364174 32.7232481,16.02043 C35.0121843,16.4962996 37.12575,16.7879655 39.0051906,16.8875317 C39.0226293,16.8885188 39.0400679,16.8888889 39.0572383,16.8888889 C39.4044018,16.8888889 39.6982656,16.7043768 39.7252732,16.4616303 C39.7536222,16.2068544 39.477197,15.9844652 39.1078551,15.9649098 L39.1078551,15.9649098 Z" id="Path"></path>
                <path d="M39.1077657,20.1870569 C37.3247296,20.0927329 35.3068529,19.8132772 33.110297,19.356648 C30.4716934,18.808039 27.9103564,18.8926776 25.4969351,19.6082814 C25.1565682,19.7092062 24.9993519,19.9813208 25.1455684,20.2161128 C25.2918743,20.4507815 25.6858986,20.5594176 26.0267127,20.4584928 C28.1418882,19.8312907 30.3950527,19.7587433 32.7232481,20.2426395 C35.0123631,20.7185777 37.1258395,21.0103097 39.00528,21.1098156 C39.0227187,21.110741 39.0400679,21.1111111 39.0572383,21.1111111 C39.4044018,21.1111111 39.6982656,20.9265964 39.7252732,20.6837846 C39.7536222,20.429005 39.4771971,20.2066743 39.1077657,20.1870569 L39.1077657,20.1870569 Z" id="Path"></path>
                <path d="M6.94268618,6.33333333 C6.9598566,6.33333333 6.97729531,6.33290151 6.99473402,6.33197617 C8.87426908,6.23247139 10.9877511,5.94074288 13.2766934,5.46487192 C15.6049846,4.98085799 17.8580657,5.05340456 19.9732469,5.68066096 C20.3135253,5.78158459 20.7080873,5.67301149 20.8543935,5.43828385 C21.0006998,5.20349453 20.8433937,4.9313832 20.5030259,4.83045957 C18.0898664,4.11486415 15.5283437,4.03028817 12.8896435,4.57889076 C10.6930817,5.03545298 8.67528894,5.31490533 6.89206921,5.40935159 C6.52272631,5.4288454 6.24630042,5.65129687 6.27473893,5.90607352 C6.30165714,6.14882076 6.59561117,6.33333333 6.94268618,6.33333333 Z" id="Path"></path>
                <path d="M6.94268617,8.44444444 C6.95985659,8.44444444 6.9772953,8.44401261 6.99464458,8.44308726 C8.8737325,8.34370465 10.987304,8.05191089 13.2766934,7.57597244 C15.6049846,7.0919526 17.8580657,7.16443837 19.9732469,7.79176411 C20.3135253,7.89262728 20.7080873,7.78411455 20.8543935,7.54938405 C21.0006998,7.31459186 20.8433937,7.04247721 20.5030259,6.94155235 C18.0898664,6.2259482 15.5283437,6.14143289 12.8896435,6.68998048 C10.6927239,7.14667164 8.67484179,7.42606571 6.89215863,7.52045143 C6.5227263,7.53994548 6.24630041,7.76233797 6.27473892,8.01711773 C6.30165713,8.25992962 6.59561116,8.44444444 6.94268617,8.44444444 L6.94268617,8.44444444 Z" id="Path"></path>
                <path d="M6.94268618,25.3333333 C6.9598566,25.3333333 6.97729531,25.3329015 6.99473402,25.3319762 C8.87435851,25.2324719 10.9878406,24.9406833 13.2766934,24.4648148 C15.605074,23.9806801 17.8580657,24.053473 19.9732469,24.6806644 C20.3135253,24.7815258 20.7080873,24.673015 20.8543935,24.4382886 C21.0006998,24.2035005 20.8433937,23.9313906 20.5030259,23.8304676 C18.0898664,23.1148759 15.5283437,23.0303004 12.8896435,23.5788384 C10.6931711,24.0354599 8.67537837,24.3149107 6.89206921,24.4093565 C6.52272631,24.4288502 6.24630042,24.6513005 6.27473893,24.9060758 C6.30165714,25.1488217 6.59561117,25.3333333 6.94268618,25.3333333 L6.94268618,25.3333333 Z" id="Path"></path>
                <path d="M6.94268618,27.4444444 C6.9598566,27.4444444 6.97729531,27.4440126 6.99473402,27.4430873 C8.87426908,27.3435825 10.9877511,27.051854 13.2766934,26.575983 C15.6049846,26.0919691 17.8580657,26.164454 19.9732469,26.7917721 C20.3135253,26.8925723 20.7080873,26.7841226 20.8543935,26.549395 C21.0006998,26.3146056 20.8433937,26.0424943 20.5030259,25.9415707 C18.0898664,25.2259753 15.5283437,25.1413993 12.8896435,25.6900019 C10.6930817,26.1465641 8.67528894,26.4260164 6.89206921,26.5204627 C6.52272631,26.5399565 6.24630042,26.762408 6.27473893,27.0171846 C6.30165714,27.2599319 6.59561117,27.4444444 6.94268618,27.4444444 L6.94268618,27.4444444 Z" id="Path"></path>
                <path d="M6.94268618,14.7777778 C6.9598566,14.7777778 6.97729531,14.777346 6.99473402,14.7764206 C8.87435851,14.6769164 10.9878406,14.3851277 13.2766934,13.9092593 C15.605074,13.4251862 17.8580657,13.4979175 19.9732469,14.1251089 C20.3135253,14.2259703 20.7080873,14.1174594 20.8543935,13.8827331 C21.0006998,13.647945 20.8433937,13.3758351 20.5030259,13.274912 C18.0898664,12.5593204 15.5283437,12.4747448 12.8896435,13.0232828 C10.6931711,13.4799043 8.67537837,13.7593552 6.89206921,13.8538009 C6.52272631,13.8732946 6.24630042,14.0957449 6.27473893,14.3505202 C6.30165714,14.5932662 6.59561117,14.7777778 6.94268618,14.7777778 L6.94268618,14.7777778 Z" id="Path"></path>
                <path d="M6.94268617,19 C6.95985659,19 6.9772953,18.9995682 6.99464458,18.9987045 C8.8737325,18.8992605 10.987304,18.6074676 13.2766934,18.1315305 C15.6049846,17.647512 17.8580657,17.7199976 19.9732469,18.3473215 C20.3135253,18.4481844 20.7080873,18.339672 20.8543935,18.1049422 C21.0006998,17.8701506 20.8433937,17.5980368 20.5030259,17.4971122 C18.0899558,16.7815718 15.5285225,16.6969333 12.8896435,17.2455411 C10.6927239,17.7022309 8.67484179,17.9816242 6.89215863,18.0759479 C6.5227263,18.0955036 6.24630041,18.3178955 6.27473892,18.5726745 C6.30165713,18.8154857 6.59561116,19 6.94268617,19 Z" id="Path"></path>
                <path d="M6.94268618,16.8888889 C6.9598566,16.8888889 6.97729531,16.8884571 6.99473402,16.8875318 C8.87426908,16.7880294 10.9877511,16.496308 13.2766934,16.0204487 C15.6048951,15.5365082 17.8579763,15.6089296 19.9732469,16.2362324 C20.3135253,16.3370302 20.7080873,16.2285831 20.8543935,15.9938612 C21.0006998,15.7590776 20.8433937,15.4869729 20.5030259,15.3860518 C18.0896875,14.6704738 15.5283437,14.5857765 12.8896435,15.1344891 C10.6930817,15.5910402 8.67528894,15.8704857 6.89206921,15.9649297 C6.52272631,15.984423 6.24630042,16.2068691 6.27473893,16.4616395 C6.30165714,16.7043808 6.59561117,16.8888889 6.94268618,16.8888889 L6.94268618,16.8888889 Z" id="Path"></path>
                <path d="M6.94268617,21.1111111 C6.95985659,21.1111111 6.9772953,21.1106793 6.99464458,21.1098156 C8.87409021,21.0103714 10.9875723,20.7185777 13.2766934,20.2426395 C15.605074,19.7584965 17.8580657,19.8312907 19.9732469,20.4584928 C20.3135253,20.5594176 20.7080873,20.4508432 20.8543935,20.2161128 C21.0006998,19.9813208 20.8433937,19.7092062 20.5030259,19.6082814 C18.0898664,18.8926776 15.5283437,18.808039 12.8896435,19.356648 C10.6930817,19.8132772 8.67511008,20.0927329 6.89215863,20.1870569 C6.5227263,20.2066126 6.24630041,20.429005 6.27473892,20.6837846 C6.30165713,20.9265964 6.59561116,21.1111111 6.94268617,21.1111111 L6.94268617,21.1111111 Z" id="Path"></path>
                <path d="M44.3542358,3.94622781 L43.2993762,3.94622781 L43.2993762,3.31301726 C43.2993762,2.42561566 42.5643616,1.72365231 41.7035652,1.7942558 C40.7092606,1.87614844 38.5320685,1.88114527 35.1214067,0.990412448 C34.760503,0.895935177 34.393939,1.12107054 34.3026574,1.49250224 C34.2111063,1.86411901 34.4294275,2.24165796 34.7901515,2.33576509 C38.2090789,3.2286262 40.4954316,3.28664506 41.8112883,3.17773247 C41.8879253,3.17218043 41.9516248,3.23353051 41.9516248,3.31301726 L41.9516248,31.3190046 C39.3991539,31.6026215 35.9893906,30.850042 33.5170606,30.0827496 C27.9951523,28.3687413 24.4253767,31.3134526 23.6737409,31.733002 L23.6737409,3.99221724 C24.4018375,3.28886587 27.3364154,0.797664009 31.7040067,1.5214654 C32.0711995,1.58290801 32.4171891,1.32510813 32.4763964,0.946643839 C32.5356037,0.568272083 32.2857472,0.2121085 31.9182848,0.151128557 C27.3321927,-0.609871523 24.1675241,1.69737264 22.998293,2.74809685 C20.3174348,0.353500538 16.4827089,-0.71017844 12.4828495,0.531628597 C8.18982887,1.86411901 5.51085746,1.89419258 4.29643475,1.79434833 C3.43447045,1.72309711 2.70071367,2.42728128 2.70071367,3.31301726 L2.70071367,3.94622781 L1.6456744,3.94622781 C0.738248978,3.94622781 0,4.70648762 0,5.64117412 L0,33.7847596 C0,34.7194461 0.738338822,35.4797059 1.64576424,35.4797059 L19.104809,35.4797059 C19.366435,35.4797059 19.6037133,35.6284082 19.70937,35.858818 C21.0171407,38.7084968 24.9779179,38.7189531 26.2904504,35.858818 C26.3961969,35.6285932 26.6334751,35.4797059 26.8951012,35.4797059 L44.3541459,35.4797059 C45.2615713,35.4797059 46,34.7193536 46,33.7847596 L46,20.6231781 C46,20.2398095 45.6981238,19.9291727 45.3258997,19.9291727 C44.9536756,19.9291727 44.652069,20.2398095 44.652069,20.6231781 L44.652069,33.7846671 C44.652069,33.9539119 44.5184708,34.0916026 44.3541459,34.0916026 L26.895191,34.0916026 C26.1149848,34.0916026 25.3994664,34.5523296 25.0721643,35.2655821 C24.2484736,37.0602802 21.7545811,37.0674053 20.9278357,35.2656747 C20.6006234,34.5525147 19.885105,34.0916026 19.104809,34.0916026 L1.64576424,34.0916026 C1.48134954,34.0916026 1.34766151,33.9539119 1.34766151,33.7846671 L1.34766151,5.64117412 C1.34766151,5.47192933 1.48134954,5.33423866 1.6456744,5.33423866 L2.70071367,5.33423866 L2.70071367,31.9113151 C2.70071367,32.2262085 2.90654651,32.5016824 3.2021336,32.582187 C3.33025129,32.6171649 6.41657585,33.4154562 12.8717847,31.4117238 C15.9950351,30.442337 19.0094844,31.0367758 21.4012242,32.7739176 C22.3259896,33.4454372 23.6133657,33.4898536 24.5990453,32.7738251 C26.0434689,31.7246739 29.0719339,30.1528905 33.128395,31.4117238 C39.5838734,33.4153637 42.6699284,32.6170724 42.7980461,32.582187 C43.0936332,32.5016824 43.299466,32.2262085 43.299466,31.9113151 L43.299466,5.33423866 L44.3543256,5.33423866 C44.5186505,5.33423866 44.6523385,5.47192933 44.6523385,5.64117412 L44.6523385,17.3844862 C44.6523385,17.7678547 44.9539451,18.0784916 45.3261692,18.0784916 C45.6983934,18.0784916 46,17.7678547 46,17.3844862 L46,5.64117412 C46,4.70648762 45.2616612,3.94622781 44.3542358,3.94622781 Z M4.04828534,3.31301726 C4.04828534,3.23519612 4.11009809,3.1720879 4.18871167,3.17773247 C5.49774023,3.28618239 8.36691159,3.25879231 12.8717847,1.86051018 C16.5200841,0.728448535 20.0054961,1.75474375 22.3261692,3.99277244 L22.3261692,31.733002 C21.9396599,31.5174902 18.1507545,28.3232146 12.4828495,30.0828422 C12.1194302,30.1956412 11.7199833,30.3127893 11.3503646,30.4144842 C11.3458724,30.4156872 11.3413802,30.4169827 11.3369779,30.4181856 C9.16724284,31.01429 6.28091125,31.5669959 4.04828534,31.3193748 C4.04828534,29.3904098 4.04828534,3.83028264 4.04828534,3.31301726 Z" id="Shape"></path>
            </g>
        </g>
    </g>
</svg>