<?xml version="1.0" encoding="UTF-8"?>
<svg width="48px" height="48px" viewBox="0 0 48 48" version="1.1" xmlns="http://www.w3.org/2000/svg" xmlns:xlink="http://www.w3.org/1999/xlink">
    <title>incentivo</title>
    <g id="incentivo" stroke="none" stroke-width="1" fill="none" fill-rule="evenodd">
        <polygon id="Path-3" fill="#FFB69A" points="26 1 26 7 35.6875 7 33.2204063 4 36 1"></polygon>
        <polygon id="Path-2" fill="#FFC9B5" fill-rule="nonzero" points="10 23.8733774 24 20 38 23.8733774 38 28 10 28"></polygon>
        <g id="003-embassy" transform="translate(2.000000, 2.000000)" fill="#000000" fill-rule="nonzero">
            <path d="M43.140625,25.3990747 L37.125,25.3990747 L37.125,22.3053247 C37.125,21.9082934 36.8529219,21.5628247 36.4669766,21.4698403 L33.0483828,20.6461294 C32.2866328,15.5341372 28.0753516,11.566059 22.859375,11.1668794 L22.859375,8.89907467 L32.3125,8.89907467 C32.6600312,8.89907467 32.9734453,8.68964499 33.1064766,8.36858249 C33.2395078,8.04743405 33.1659453,7.67781686 32.92025,7.43203561 L30.0903281,4.60219967 L32.9201641,1.77236374 C33.1659453,1.52658249 33.2394219,1.1569653 33.1063906,0.835816862 C32.9734453,0.514754362 32.6600312,0.305324675 32.3125,0.305324675 L22,0.305324675 C21.5253672,0.305324675 21.140625,0.6901528 21.140625,1.16469967 L21.140625,11.1668794 C15.9250781,11.566059 11.7134531,15.5337075 10.9516172,20.6461294 L7.53302344,21.4698403 C7.14707813,21.5628247 6.875,21.9082934 6.875,22.3053247 L6.875,25.3990747 L0.859375,25.3990747 C0.384742187,25.3990747 0,25.7839028 0,26.2584497 L0,43.4459497 C0,43.9204965 0.384742187,44.3053247 0.859375,44.3053247 L18.1328125,44.3053247 C18.6074453,44.3053247 18.9921875,43.9204965 18.9921875,43.4459497 C18.9921875,42.9714028 18.6074453,42.5865747 18.1328125,42.5865747 C16.4519609,42.5865747 9.68996875,42.5865747 8.59375,42.5865747 L8.59375,40.8678247 L35.40625,40.8678247 L35.40625,42.5865747 L25.8671875,42.5865747 C25.3925547,42.5865747 25.0078125,42.9714028 25.0078125,43.4459497 C25.0078125,43.9204965 25.3925547,44.3053247 25.8671875,44.3053247 L43.140625,44.3053247 C43.6152578,44.3053247 44,43.9204965 44,43.4459497 L44,26.2584497 C44,25.7839028 43.6152578,25.3990747 43.140625,25.3990747 Z M22.859375,2.02407467 L30.2377969,2.02407467 L28.2673359,3.99453561 C27.93175,4.33012155 27.93175,4.8742778 28.2673359,5.20994967 L30.2377969,7.18032467 L22.859375,7.18032467 L22.859375,2.02407467 Z M22,12.8521997 C26.4966797,12.8521997 30.2664141,15.9378715 31.2204063,20.2056137 L22.2012656,18.0323403 C22.0689219,18.0004575 21.9309063,18.0004575 21.7985625,18.0323403 L12.7794219,20.2056137 C13.7335859,15.9378715 17.5033203,12.8521997 22,12.8521997 Z M8.59375,22.9822544 C10.3778984,22.552309 20.8288438,20.0339965 22,19.7517778 L35.40625,22.9822544 L35.40625,25.3990747 L8.59375,25.3990747 L8.59375,22.9822544 Z M13.75,27.1178247 L13.75,39.1490747 L12.03125,39.1490747 L12.03125,27.1178247 L13.75,27.1178247 Z M15.46875,27.1178247 L19.421875,27.1178247 L19.421875,39.1490747 L15.46875,39.1490747 L15.46875,27.1178247 Z M21.140625,27.1178247 L22.859375,27.1178247 L22.859375,39.1490747 L21.140625,39.1490747 L21.140625,27.1178247 Z M24.578125,27.1178247 L28.53125,27.1178247 L28.53125,39.1490747 L24.578125,39.1490747 L24.578125,27.1178247 Z M30.25,27.1178247 L31.96875,27.1178247 L31.96875,39.1490747 L30.25,39.1490747 L30.25,27.1178247 Z M1.71875,42.5865747 L1.71875,27.1178247 L10.3125,27.1178247 L10.3125,39.1490747 L8.59375,39.1490747 L8.59375,36.5709497 C8.59375,36.0964028 8.20900781,35.7115747 7.734375,35.7115747 L4.296875,35.7115747 C3.82224219,35.7115747 3.4375,36.0964028 3.4375,36.5709497 L3.4375,40.0084497 C3.4375,40.4829965 3.82224219,40.8678247 4.296875,40.8678247 L6.875,40.8678247 L6.875,42.5865747 L1.71875,42.5865747 Z M6.875,39.1490747 L5.15625,39.1490747 L5.15625,37.4303247 L6.875,37.4303247 L6.875,39.1490747 Z M42.28125,42.5865747 L37.125,42.5865747 L37.125,40.8678247 L39.703125,40.8678247 C40.1777578,40.8678247 40.5625,40.4829965 40.5625,40.0084497 L40.5625,36.5709497 C40.5625,36.0964028 40.1777578,35.7115747 39.703125,35.7115747 L36.265625,35.7115747 C35.7909922,35.7115747 35.40625,36.0964028 35.40625,36.5709497 L35.40625,39.1490747 L33.6875,39.1490747 L33.6875,27.1178247 L42.28125,27.1178247 L42.28125,42.5865747 Z M37.125,39.1490747 L37.125,37.4303247 L38.84375,37.4303247 L38.84375,39.1490747 L37.125,39.1490747 Z" id="Shape"></path>
            <path d="M34,29.3053247 L34,33.3053247 C34,33.8575247 34.4477,34.3053247 35,34.3053247 L39,34.3053247 C39.5523,34.3053247 40,33.8575247 40,33.3053247 L40,29.3053247 C40,28.7531247 39.5523,28.3053247 39,28.3053247 L35,28.3053247 C34.4477,28.3053247 34,28.7531247 34,29.3053247 Z M36,30.3053247 L38,30.3053247 L38,32.3053247 L36,32.3053247 L36,30.3053247 Z" id="Shape"></path>
            <path d="M5,34.3053247 L9,34.3053247 C9.5523,34.3053247 10,33.8575247 10,33.3053247 L10,29.3053247 C10,28.7531247 9.5523,28.3053247 9,28.3053247 L5,28.3053247 C4.4477,28.3053247 4,28.7531247 4,29.3053247 L4,33.3053247 C4,33.8575247 4.4477,34.3053247 5,34.3053247 Z M6,30.3053247 L8,30.3053247 L8,32.3053247 L6,32.3053247 L6,30.3053247 Z" id="Shape"></path>
            <circle id="Oval" cx="23" cy="43.3053247" r="1"></circle>
        </g>
    </g>
</svg>